<svg version="1" xmlns="http://www.w3.org/2000/svg" width="682.667" height="682.667" viewBox="0 0 512.000000 512.000000"><path d="M248.7 18.6c-.1.1-5.1.5-11 .8-5.9.4-11.3.9-12 1.1-.7.2-3 .6-5.2.9-5.9.7-13.7 2.5-25.5 5.6-43.2 11.6-75 30.1-106.8 61.8-37.8 37.9-57.9 78.9-67.6 137.6-1.9 11-2.4 36-1.2 49.2 2.9 30.4 13.5 66.3 26.9 91.6 10.1 19 24.3 38 40.4 54.3 12.6 12.8 14.4 14.4 35.3 30.3 8.8 6.7 32 18.9 48.1 25.2 12.4 4.9 38.4 11.9 49.9 13.5 2.5.3 5.6.8 7 1 8.6 1.6 43.6 2.4 49.5 1.1 1.1-.2 4.5-.7 7.5-1.1 48.5-6.1 93.8-26.5 129-58 10.2-9.1 25.2-25.4 35.3-38.5 1.7-2.2 9-13.1 10.3-15.5.6-1.1 2.8-4.9 4.8-8.5 3.5-6 4.7-8.4 10.4-21 8.2-18.1 16.6-51.5 18.8-74 .6-7.2.7-33.2 0-39.5-2.5-24.2-9-50.2-17.8-71.8C463.1 136 447 112.2 423 88.1c-37.2-37.4-78.4-57.8-136.5-67.6-6-1-37-2.5-37.8-1.9z"/></svg>